<svg width="100" height="100" viewBox="0 0 100 100" fill="none" xmlns="http://www.w3.org/2000/svg">
<path d="M0 50C0 8.825 8.825 0 50 0C91.175 0 100 8.825 100 50C100 91.175 91.175 100 50 100C8.825 100 0 91.175 0 50Z" fill="black"/>
<path d="M43.6547 52.1213C42.4831 50.9497 42.4831 49.0503 43.6547 47.8787L45.4667 46.0667C46 45.5333 46.2667 44.9111 46.2667 44.2C46.2667 43.4889 46 42.8667 45.4667 42.3333C44.9333 41.8 44.3004 41.5333 43.568 41.5333C42.8356 41.5333 42.2018 41.8 41.6667 42.3333L35.8667 48.1333C35.6 48.4 35.4107 48.6889 35.2987 49C35.1867 49.3111 35.1316 49.6444 35.1333 50C35.1351 50.3556 35.1902 50.6889 35.2987 51C35.4071 51.3111 35.5964 51.6 35.8667 51.8667L41.6667 57.6667C42.2 58.2 42.8338 58.4667 43.568 58.4667C44.3022 58.4667 44.9351 58.2 45.4667 57.6667C45.9982 57.1333 46.2649 56.5111 46.2667 55.8C46.2684 55.0889 46.0018 54.4667 45.4667 53.9333L43.6547 52.1213ZM56.3453 47.8787C57.5169 49.0503 57.5169 50.9497 56.3453 52.1213L54.5333 53.9333C54 54.4667 53.7333 55.0889 53.7333 55.8C53.7333 56.5111 54 57.1333 54.5333 57.6667C55.0667 58.2 55.7004 58.4667 56.4347 58.4667C57.1689 58.4667 57.8018 58.2 58.3333 57.6667L64.1333 51.8667C64.4 51.6 64.5893 51.3111 64.7013 51C64.8133 50.6889 64.8684 50.3556 64.8667 50C64.8649 49.6444 64.8098 49.3111 64.7013 49C64.5929 48.6889 64.4036 48.4 64.1333 48.1333L58.3333 42.3333C58.0667 42.0667 57.7671 41.8667 57.4347 41.7333C57.1022 41.6 56.768 41.5333 56.432 41.5333C56.096 41.5333 55.7627 41.6 55.432 41.7333C55.1013 41.8667 54.8018 42.0667 54.5333 42.3333C54 42.8667 53.7333 43.4889 53.7333 44.2C53.7333 44.9111 54 45.5333 54.5333 46.0667L56.3453 47.8787ZM31.3333 74C29.8667 74 28.6116 73.4782 27.568 72.4347C26.5244 71.3911 26.0018 70.1351 26 68.6667V31.3333C26 29.8667 26.5227 28.6116 27.568 27.568C28.6133 26.5244 29.8684 26.0018 31.3333 26H68.6667C70.1333 26 71.3893 26.5227 72.4347 27.568C73.48 28.6133 74.0018 29.8684 74 31.3333V68.6667C74 70.1333 73.4782 71.3893 72.4347 72.4347C71.3911 73.48 70.1351 74.0018 68.6667 74H31.3333Z" fill="white"/>
</svg>
